# xmcd
#
# Track frame offsets:
#	150
#	22809
#	50235
#	84638
#	116359
#	132007
#	157138
#	169854
#	196713
#	219868
#	235184
#	255416
#
# Disc length: 3665 seconds
#
# Revision: 1
# Processed by: cddbd v1.5.1PL2 Copyright (c) Steve Scherf et al.
# Submitted via: audiograbber 1.82.02
#
DISCID=950e4f0c
DTITLE=Notodden Blues Festval - Bluestown
DYEAR=2001
DGENRE=Blues
TTITLE0=Sista Monica - The Sista Don't Play
TTITLE1=Mighty Sam McClain - A New Man In Town
TTITLE2=Kim Wilson's Blues Express - Don't Bite The Hand That Feeds You
TTITLE3=Marcia Ball - Louisiana 1927
TTITLE4=Jimmy Vaughan - Six Strings Down
TTITLE5=Roomful of Blues - I Left My Baby
TTITLE6=Rory Block - If I Had Possession Over Judgement Day
TTITLE7=Duke Robillard - Fishnet
TTITLE8=Kim Wilson's Blues Express - Black Cat Bone
TTITLE9=Omar and the Howlers - Mystery Walk
TTITLE10=Alex Schulz and Tad Robinson - Too Late To Turn Back Now
TTITLE11=Larry McCray - I Feel So Damn Good
EXTD=
EXTT0=
EXTT1=
EXTT2=
EXTT3=
EXTT4=
EXTT5=
EXTT6=
EXTT7=
EXTT8=
EXTT9=
EXTT10=
EXTT11=
PLAYORDER=
